<svg xmlns="http://www.w3.org/2000/svg" xmlns:xlink="http://www.w3.org/1999/xlink" width="1366" zoomAndPan="magnify" viewBox="0 0 1024.5 576" height="768" preserveAspectRatio="xMidYMid meet" version="1.0"><defs><g/><clipPath id="773bcae9b4"><path d="M 400 136.863281 L 615 136.863281 L 615 350 L 400 350 Z M 400 136.863281 " clip-rule="nonzero"/></clipPath></defs><g clip-path="url(#773bcae9b4)"><path fill="#000000" d="M 477.125 154.972656 L 477.125 248.75 C 497.058594 225.808594 512.90625 207.71875 524.667969 193.960938 C 539.230469 176.894531 562.496094 176.125 569.644531 198.292969 C 571.433594 208.488281 569.390625 219.191406 564.023438 228.355469 C 569.90625 209.761719 547.925781 197.53125 530.542969 213.585938 L 517.253906 226.324219 C 507.027344 237.277344 496.292969 244.675781 485.8125 248.488281 C 498.085938 249.511719 509.582031 256.644531 520.320312 269.125 L 526.195312 277.027344 C 544.09375 261.234375 560.191406 254.863281 574.761719 257.664062 C 592.394531 260.214844 606.710938 272.191406 612.335938 288.5 C 617.441406 303.53125 614.882812 319.839844 604.921875 332.324219 C 590.351562 350.160156 562.746094 356.785156 541.019531 340.222656 C 533.871094 335.125 524.152344 320.863281 511.632812 297.160156 C 517.253906 290.785156 522.878906 285.179688 528.246094 280.597656 C 528.5 280.597656 528.5 280.34375 528.753906 280.34375 L 543.324219 300.214844 C 551.242188 310.664062 558.914062 318.3125 566.582031 322.390625 C 578.339844 329.007812 591.375 327.742188 600.828125 321.113281 C 627.160156 302.257812 605.429688 264.039062 574.761719 259.445312 C 560.441406 256.644531 544.597656 263.015625 526.964844 278.046875 C 521.59375 282.632812 515.972656 288.246094 510.351562 294.609375 C 509.328125 295.882812 508.054688 297.160156 507.027344 298.433594 C 497.058594 308.882812 486.835938 316.523438 477.125 321.367188 C 473.035156 323.148438 469.199219 324.675781 465.109375 325.699219 C 452.585938 329.007812 440.0625 327.742188 427.539062 322.128906 C 407.09375 311.171875 396.867188 287.984375 402.496094 265.816406 C 408.117188 243.398438 428.304688 227.597656 451.308594 227.597656 C 451.566406 227.597656 451.820312 227.597656 452.078125 227.597656 L 452.078125 142.75 L 434.953125 142.75 L 434.953125 136.882812 L 477.125 136.882812 Z M 452.078125 325.699219 L 452.078125 229.125 L 451.820312 229.125 C 429.332031 229.125 409.90625 244.160156 404.539062 265.816406 C 398.914062 287.476562 408.878906 310.160156 428.5625 320.597656 C 436.484375 323.917969 444.15625 325.699219 452.078125 325.699219 Z M 509.582031 293.589844 C 507.796875 290.027344 506.007812 286.457031 504.21875 282.632812 C 495.273438 265.566406 486.070312 255.882812 477.125 253.335938 L 477.125 319.324219 C 486.835938 314.742188 497.058594 307.09375 507.027344 296.652344 C 507.796875 295.632812 508.8125 294.355469 509.582031 293.589844 Z M 509.582031 293.589844 " fill-opacity="1" fill-rule="evenodd"/></g><g fill="#000000" fill-opacity="1"><g transform="translate(401.253948, 390.668216)"><g><path d="M 5.21875 -0.203125 L 5.46875 -0.203125 L 5.46875 0 L 1.171875 0 L 1.171875 -0.203125 L 1.4375 -0.203125 C 1.769531 -0.203125 2.054688 -0.320312 2.296875 -0.5625 C 2.546875 -0.800781 2.675781 -1.09375 2.6875 -1.4375 L 2.6875 -12.328125 C 2.675781 -12.660156 2.546875 -12.945312 2.296875 -13.1875 C 2.054688 -13.425781 1.769531 -13.546875 1.4375 -13.546875 L 1.171875 -13.546875 L 1.171875 -13.734375 L 5.46875 -13.734375 L 5.46875 -13.546875 L 5.21875 -13.546875 C 4.875 -13.546875 4.582031 -13.425781 4.34375 -13.1875 C 4.101562 -12.945312 3.976562 -12.660156 3.96875 -12.328125 L 3.96875 -1.4375 C 3.96875 -1.09375 4.085938 -0.800781 4.328125 -0.5625 C 4.578125 -0.320312 4.875 -0.203125 5.21875 -0.203125 Z M 13.109375 0 L 12.265625 0 C 10.929688 0 9.953125 -0.375 9.328125 -1.125 L 4.59375 -6.828125 L 9.21875 -12.640625 C 9.320312 -12.765625 9.375 -12.878906 9.375 -12.984375 C 9.375 -13.097656 9.359375 -13.191406 9.328125 -13.265625 C 9.222656 -13.460938 9.03125 -13.5625 8.75 -13.5625 L 8.5625 -13.5625 L 8.5625 -13.734375 L 12.703125 -13.734375 L 12.703125 -13.5625 L 12.625 -13.5625 C 11.757812 -13.5625 11.050781 -13.253906 10.5 -12.640625 L 5.890625 -7.296875 L 11.25 -1 C 11.769531 -0.476562 12.390625 -0.210938 13.109375 -0.203125 Z M 13.109375 0 "/></g></g></g><g fill="#000000" fill-opacity="1"><g transform="translate(416.395102, 390.668216)"><g><path d="M 1.4375 -0.203125 C 1.769531 -0.203125 2.054688 -0.320312 2.296875 -0.5625 C 2.546875 -0.800781 2.675781 -1.09375 2.6875 -1.4375 L 2.6875 -12.421875 C 2.644531 -12.734375 2.503906 -13 2.265625 -13.21875 C 2.035156 -13.4375 1.757812 -13.546875 1.4375 -13.546875 L 1.203125 -13.546875 L 1.171875 -13.734375 L 6.921875 -13.734375 C 7.328125 -13.734375 7.769531 -13.769531 8.25 -13.84375 C 8.726562 -13.925781 9.066406 -14.007812 9.265625 -14.09375 L 9.265625 -11.625 L 9.0625 -11.625 L 9.0625 -11.96875 C 9.0625 -12.28125 8.953125 -12.546875 8.734375 -12.765625 C 8.523438 -12.992188 8.269531 -13.113281 7.96875 -13.125 L 3.96875 -13.125 L 3.96875 -7.0625 L 7.28125 -7.0625 C 7.539062 -7.070312 7.757812 -7.171875 7.9375 -7.359375 C 8.125 -7.546875 8.21875 -7.773438 8.21875 -8.046875 L 8.21875 -8.328125 L 8.421875 -8.328125 L 8.421875 -5.21875 L 8.21875 -5.21875 L 8.21875 -5.515625 C 8.21875 -5.773438 8.128906 -5.992188 7.953125 -6.171875 C 7.773438 -6.359375 7.554688 -6.457031 7.296875 -6.46875 L 3.96875 -6.46875 L 3.96875 -0.609375 L 6.765625 -0.609375 C 7.734375 -0.609375 8.472656 -0.820312 8.984375 -1.25 C 9.492188 -1.6875 9.921875 -2.328125 10.265625 -3.171875 L 10.453125 -3.171875 L 9.328125 0 L 1.171875 0 L 1.171875 -0.203125 Z M 1.4375 -0.203125 "/></g></g></g><g fill="#000000" fill-opacity="1"><g transform="translate(429.967419, 390.668216)"><g><path d="M 1.4375 -0.203125 C 1.769531 -0.203125 2.054688 -0.320312 2.296875 -0.5625 C 2.546875 -0.800781 2.675781 -1.09375 2.6875 -1.4375 L 2.6875 -12.328125 C 2.675781 -12.660156 2.546875 -12.945312 2.296875 -13.1875 C 2.054688 -13.425781 1.769531 -13.546875 1.4375 -13.546875 L 1.171875 -13.546875 L 1.171875 -13.734375 L 5.46875 -13.734375 L 5.46875 -13.546875 L 5.21875 -13.546875 C 4.875 -13.546875 4.582031 -13.425781 4.34375 -13.1875 C 4.101562 -12.945312 3.976562 -12.660156 3.96875 -12.328125 L 3.96875 -1.4375 C 3.96875 -1.09375 4.085938 -0.800781 4.328125 -0.5625 C 4.578125 -0.320312 4.875 -0.203125 5.21875 -0.203125 L 5.46875 -0.203125 L 5.46875 0 L 1.171875 0 L 1.171875 -0.203125 Z M 1.4375 -0.203125 "/></g></g></g><g fill="#000000" fill-opacity="1"><g transform="translate(438.852865, 390.668216)"><g><path d="M 1.203125 -0.796875 C 1.160156 -0.984375 1.140625 -1.335938 1.140625 -1.859375 C 1.140625 -2.390625 1.238281 -2.945312 1.4375 -3.53125 L 1.609375 -3.53125 C 1.597656 -3.382812 1.59375 -3.238281 1.59375 -3.09375 C 1.59375 -2.300781 1.832031 -1.640625 2.3125 -1.109375 C 2.800781 -0.578125 3.441406 -0.3125 4.234375 -0.3125 C 5.054688 -0.3125 5.734375 -0.5625 6.265625 -1.0625 C 6.796875 -1.5625 7.0625 -2.1875 7.0625 -2.9375 C 7.0625 -3.6875 6.804688 -4.296875 6.296875 -4.765625 L 2.53125 -8.265625 C 1.820312 -8.921875 1.46875 -9.710938 1.46875 -10.640625 C 1.46875 -11.566406 1.78125 -12.359375 2.40625 -13.015625 C 3.03125 -13.679688 3.867188 -14.015625 4.921875 -14.015625 C 5.421875 -14.015625 5.984375 -13.945312 6.609375 -13.8125 L 7.375 -13.8125 L 7.375 -11.40625 L 7.203125 -11.40625 C 7.203125 -12.019531 6.988281 -12.507812 6.5625 -12.875 C 6.132812 -13.238281 5.585938 -13.421875 4.921875 -13.421875 C 4.253906 -13.421875 3.695312 -13.195312 3.25 -12.75 C 2.800781 -12.3125 2.578125 -11.757812 2.578125 -11.09375 C 2.578125 -10.425781 2.835938 -9.847656 3.359375 -9.359375 L 7.21875 -5.796875 C 7.875 -5.191406 8.203125 -4.363281 8.203125 -3.3125 C 8.203125 -2.269531 7.867188 -1.410156 7.203125 -0.734375 C 6.535156 -0.0546875 5.644531 0.28125 4.53125 0.28125 C 3.957031 0.28125 3.347656 0.191406 2.703125 0.015625 C 2.054688 -0.160156 1.554688 -0.429688 1.203125 -0.796875 Z M 1.203125 -0.796875 "/></g></g></g><g fill="#000000" fill-opacity="1"><g transform="translate(450.424922, 390.668216)"><g><path d="M 10.734375 -0.203125 C 11.078125 -0.203125 11.367188 -0.316406 11.609375 -0.546875 C 11.847656 -0.785156 11.972656 -1.070312 11.984375 -1.40625 L 11.984375 -6.5 L 3.96875 -6.5 L 3.96875 -1.4375 C 3.96875 -1.09375 4.085938 -0.800781 4.328125 -0.5625 C 4.578125 -0.320312 4.875 -0.203125 5.21875 -0.203125 L 5.46875 -0.203125 L 5.46875 0 L 1.171875 0 L 1.171875 -0.203125 L 1.4375 -0.203125 C 1.769531 -0.203125 2.054688 -0.320312 2.296875 -0.5625 C 2.546875 -0.800781 2.675781 -1.09375 2.6875 -1.4375 L 2.6875 -12.328125 C 2.675781 -12.660156 2.546875 -12.945312 2.296875 -13.1875 C 2.054688 -13.425781 1.769531 -13.546875 1.4375 -13.546875 L 1.171875 -13.546875 L 1.171875 -13.734375 L 5.46875 -13.734375 L 5.46875 -13.546875 L 5.21875 -13.546875 C 4.875 -13.546875 4.582031 -13.425781 4.34375 -13.1875 C 4.101562 -12.945312 3.976562 -12.660156 3.96875 -12.328125 L 3.96875 -7.078125 L 11.984375 -7.078125 L 11.984375 -12.328125 C 11.972656 -12.796875 11.765625 -13.148438 11.359375 -13.390625 C 11.160156 -13.492188 10.953125 -13.546875 10.734375 -13.546875 L 10.484375 -13.546875 L 10.484375 -13.734375 L 14.78125 -13.734375 L 14.78125 -13.546875 L 14.515625 -13.546875 C 14.179688 -13.546875 13.890625 -13.421875 13.640625 -13.171875 C 13.398438 -12.929688 13.273438 -12.644531 13.265625 -12.3125 L 13.265625 -1.4375 C 13.273438 -1.09375 13.398438 -0.800781 13.640625 -0.5625 C 13.890625 -0.320312 14.179688 -0.203125 14.515625 -0.203125 L 14.78125 -0.203125 L 14.78125 0 L 10.484375 0 L 10.484375 -0.203125 Z M 10.734375 -0.203125 "/></g></g></g><g fill="#000000" fill-opacity="1"><g transform="translate(468.625285, 390.668216)"><g><path d="M 14.046875 -0.203125 L 14.203125 -0.203125 L 14.203125 0 L 9.78125 0 L 9.78125 -0.203125 L 9.96875 -0.203125 C 10.238281 -0.203125 10.441406 -0.285156 10.578125 -0.453125 C 10.722656 -0.628906 10.796875 -0.796875 10.796875 -0.953125 C 10.796875 -1.117188 10.769531 -1.28125 10.71875 -1.4375 L 9.453125 -4.765625 L 4.15625 -4.765625 L 2.84375 -1.40625 C 2.789062 -1.25 2.765625 -1.09375 2.765625 -0.9375 C 2.765625 -0.789062 2.832031 -0.628906 2.96875 -0.453125 C 3.101562 -0.285156 3.3125 -0.203125 3.59375 -0.203125 L 3.765625 -0.203125 L 3.765625 0 L -0.1875 0 L -0.1875 -0.203125 L 0 -0.203125 C 0.320312 -0.203125 0.640625 -0.304688 0.953125 -0.515625 C 1.265625 -0.722656 1.519531 -1.03125 1.71875 -1.4375 L 6.15625 -11.984375 C 6.644531 -13.046875 6.890625 -13.722656 6.890625 -14.015625 L 7.0625 -14.015625 L 12.328125 -1.4375 C 12.503906 -1.03125 12.75 -0.722656 13.0625 -0.515625 C 13.375 -0.304688 13.703125 -0.203125 14.046875 -0.203125 Z M 4.390625 -5.359375 L 9.21875 -5.359375 L 6.859375 -11.65625 Z M 4.390625 -5.359375 "/></g></g></g><g fill="#000000" fill-opacity="1"><g transform="translate(484.845002, 390.668216)"><g/></g></g><g fill="#000000" fill-opacity="1"><g transform="translate(492.004734, 390.668216)"><g><path d="M 14.734375 -13.546875 L 14.5625 -13.546875 C 14.113281 -13.546875 13.707031 -13.367188 13.34375 -13.015625 C 13.132812 -12.828125 12.96875 -12.597656 12.84375 -12.328125 L 8.125 -1.75 C 7.632812 -0.6875 7.390625 -0.0078125 7.390625 0.28125 L 7.21875 0.28125 L 1.703125 -12.3125 C 1.515625 -12.726562 1.257812 -13.035156 0.9375 -13.234375 C 0.625 -13.441406 0.300781 -13.546875 -0.03125 -13.546875 L -0.1875 -13.546875 L -0.1875 -13.734375 L 4.234375 -13.734375 L 4.234375 -13.546875 L 4.0625 -13.546875 C 3.664062 -13.546875 3.398438 -13.359375 3.265625 -12.984375 C 3.242188 -12.910156 3.234375 -12.820312 3.234375 -12.71875 C 3.234375 -12.613281 3.265625 -12.484375 3.328125 -12.328125 L 7.4375 -2.046875 L 11.71875 -12.328125 C 11.769531 -12.484375 11.796875 -12.632812 11.796875 -12.78125 C 11.796875 -12.9375 11.722656 -13.101562 11.578125 -13.28125 C 11.441406 -13.457031 11.238281 -13.546875 10.96875 -13.546875 L 10.796875 -13.546875 L 10.796875 -13.734375 L 14.734375 -13.734375 Z M 14.734375 -13.546875 "/></g></g></g><g fill="#000000" fill-opacity="1"><g transform="translate(508.773552, 390.668216)"><g><path d="M 1.4375 -0.203125 C 1.769531 -0.203125 2.054688 -0.320312 2.296875 -0.5625 C 2.546875 -0.800781 2.675781 -1.09375 2.6875 -1.4375 L 2.6875 -12.328125 C 2.675781 -12.660156 2.546875 -12.945312 2.296875 -13.1875 C 2.054688 -13.425781 1.769531 -13.546875 1.4375 -13.546875 L 1.171875 -13.546875 L 1.171875 -13.734375 L 5.46875 -13.734375 L 5.46875 -13.546875 L 5.21875 -13.546875 C 4.875 -13.546875 4.582031 -13.425781 4.34375 -13.1875 C 4.101562 -12.945312 3.976562 -12.660156 3.96875 -12.328125 L 3.96875 -1.4375 C 3.96875 -1.09375 4.085938 -0.800781 4.328125 -0.5625 C 4.578125 -0.320312 4.875 -0.203125 5.21875 -0.203125 L 5.46875 -0.203125 L 5.46875 0 L 1.171875 0 L 1.171875 -0.203125 Z M 1.4375 -0.203125 "/></g></g></g><g fill="#000000" fill-opacity="1"><g transform="translate(517.659001, 390.668216)"><g><path d="M 1.4375 -0.203125 C 1.769531 -0.203125 2.054688 -0.320312 2.296875 -0.5625 C 2.546875 -0.800781 2.675781 -1.09375 2.6875 -1.4375 L 2.6875 -12.3125 C 2.675781 -12.644531 2.546875 -12.929688 2.296875 -13.171875 C 2.054688 -13.421875 1.769531 -13.546875 1.4375 -13.546875 L 1.171875 -13.546875 L 1.171875 -13.734375 L 5.46875 -13.734375 L 5.46875 -13.546875 L 5.21875 -13.546875 C 4.75 -13.546875 4.390625 -13.34375 4.140625 -12.9375 C 4.023438 -12.738281 3.96875 -12.53125 3.96875 -12.3125 L 3.96875 -0.609375 L 6.765625 -0.609375 C 7.734375 -0.609375 8.472656 -0.820312 8.984375 -1.25 C 9.492188 -1.6875 9.921875 -2.328125 10.265625 -3.171875 L 10.453125 -3.171875 L 9.328125 0 L 1.171875 0 L 1.171875 -0.203125 Z M 1.4375 -0.203125 "/></g></g></g><g fill="#000000" fill-opacity="1"><g transform="translate(530.937171, 390.668216)"><g><path d="M 1.4375 -0.203125 C 1.769531 -0.203125 2.054688 -0.320312 2.296875 -0.5625 C 2.546875 -0.800781 2.675781 -1.09375 2.6875 -1.4375 L 2.6875 -12.3125 C 2.675781 -12.644531 2.546875 -12.929688 2.296875 -13.171875 C 2.054688 -13.421875 1.769531 -13.546875 1.4375 -13.546875 L 1.171875 -13.546875 L 1.171875 -13.734375 L 5.46875 -13.734375 L 5.46875 -13.546875 L 5.21875 -13.546875 C 4.75 -13.546875 4.390625 -13.34375 4.140625 -12.9375 C 4.023438 -12.738281 3.96875 -12.53125 3.96875 -12.3125 L 3.96875 -0.609375 L 6.765625 -0.609375 C 7.734375 -0.609375 8.472656 -0.820312 8.984375 -1.25 C 9.492188 -1.6875 9.921875 -2.328125 10.265625 -3.171875 L 10.453125 -3.171875 L 9.328125 0 L 1.171875 0 L 1.171875 -0.203125 Z M 1.4375 -0.203125 "/></g></g></g><g fill="#000000" fill-opacity="1"><g transform="translate(544.215341, 390.668216)"><g><path d="M 14.046875 -0.203125 L 14.203125 -0.203125 L 14.203125 0 L 9.78125 0 L 9.78125 -0.203125 L 9.96875 -0.203125 C 10.238281 -0.203125 10.441406 -0.285156 10.578125 -0.453125 C 10.722656 -0.628906 10.796875 -0.796875 10.796875 -0.953125 C 10.796875 -1.117188 10.769531 -1.28125 10.71875 -1.4375 L 9.453125 -4.765625 L 4.15625 -4.765625 L 2.84375 -1.40625 C 2.789062 -1.25 2.765625 -1.09375 2.765625 -0.9375 C 2.765625 -0.789062 2.832031 -0.628906 2.96875 -0.453125 C 3.101562 -0.285156 3.3125 -0.203125 3.59375 -0.203125 L 3.765625 -0.203125 L 3.765625 0 L -0.1875 0 L -0.1875 -0.203125 L 0 -0.203125 C 0.320312 -0.203125 0.640625 -0.304688 0.953125 -0.515625 C 1.265625 -0.722656 1.519531 -1.03125 1.71875 -1.4375 L 6.15625 -11.984375 C 6.644531 -13.046875 6.890625 -13.722656 6.890625 -14.015625 L 7.0625 -14.015625 L 12.328125 -1.4375 C 12.503906 -1.03125 12.75 -0.722656 13.0625 -0.515625 C 13.375 -0.304688 13.703125 -0.203125 14.046875 -0.203125 Z M 4.390625 -5.359375 L 9.21875 -5.359375 L 6.859375 -11.65625 Z M 4.390625 -5.359375 "/></g></g></g><g fill="#000000" fill-opacity="1"><g transform="translate(560.435058, 390.668216)"><g><path d="M 5.21875 -13.125 L 3.96875 -13.125 L 3.96875 -1.4375 C 3.96875 -1.09375 4.085938 -0.800781 4.328125 -0.5625 C 4.566406 -0.320312 4.863281 -0.203125 5.21875 -0.203125 L 5.453125 -0.203125 L 5.46875 0 L 1.171875 0 L 1.171875 -0.203125 L 1.4375 -0.203125 C 1.769531 -0.203125 2.054688 -0.316406 2.296875 -0.546875 C 2.546875 -0.785156 2.675781 -1.070312 2.6875 -1.40625 L 2.6875 -12.3125 C 2.675781 -12.644531 2.546875 -12.929688 2.296875 -13.171875 C 2.054688 -13.421875 1.769531 -13.546875 1.4375 -13.546875 L 1.171875 -13.546875 L 1.171875 -13.734375 L 6.46875 -13.734375 C 7.664062 -13.734375 8.601562 -13.398438 9.28125 -12.734375 C 9.957031 -12.078125 10.296875 -11.222656 10.296875 -10.171875 C 10.296875 -9.117188 9.972656 -8.207031 9.328125 -7.4375 C 8.679688 -6.675781 7.894531 -6.296875 6.96875 -6.296875 C 7.164062 -6.203125 7.394531 -6.019531 7.65625 -5.75 C 7.925781 -5.488281 8.164062 -5.210938 8.375 -4.921875 C 9.5 -3.316406 10.234375 -2.328125 10.578125 -1.953125 C 10.921875 -1.578125 11.160156 -1.320312 11.296875 -1.1875 C 11.441406 -1.050781 11.597656 -0.914062 11.765625 -0.78125 C 11.941406 -0.65625 12.113281 -0.550781 12.28125 -0.46875 C 12.664062 -0.289062 13.070312 -0.203125 13.5 -0.203125 L 13.5 0 L 12.421875 0 C 11.859375 0 11.332031 -0.0976562 10.84375 -0.296875 C 10.363281 -0.503906 10.003906 -0.710938 9.765625 -0.921875 C 9.523438 -1.140625 9.316406 -1.347656 9.140625 -1.546875 C 8.960938 -1.753906 8.472656 -2.429688 7.671875 -3.578125 C 6.867188 -4.734375 6.398438 -5.394531 6.265625 -5.5625 C 6.140625 -5.726562 6.007812 -5.890625 5.875 -6.046875 C 5.445312 -6.492188 5.023438 -6.71875 4.609375 -6.71875 L 4.609375 -6.90625 C 4.710938 -6.894531 4.847656 -6.890625 5.015625 -6.890625 C 5.191406 -6.890625 5.40625 -6.894531 5.65625 -6.90625 C 7.269531 -6.945312 8.289062 -7.628906 8.71875 -8.953125 C 8.789062 -9.210938 8.828125 -9.457031 8.828125 -9.6875 C 8.828125 -9.914062 8.828125 -10.0625 8.828125 -10.125 C 8.804688 -11 8.578125 -11.703125 8.140625 -12.234375 C 7.710938 -12.773438 7.128906 -13.066406 6.390625 -13.109375 C 6.078125 -13.117188 5.6875 -13.125 5.21875 -13.125 Z M 5.21875 -13.125 "/></g></g></g><g fill="#000000" fill-opacity="1"><g transform="translate(575.968421, 390.668216)"><g><path d="M 1.203125 -0.796875 C 1.160156 -0.984375 1.140625 -1.335938 1.140625 -1.859375 C 1.140625 -2.390625 1.238281 -2.945312 1.4375 -3.53125 L 1.609375 -3.53125 C 1.597656 -3.382812 1.59375 -3.238281 1.59375 -3.09375 C 1.59375 -2.300781 1.832031 -1.640625 2.3125 -1.109375 C 2.800781 -0.578125 3.441406 -0.3125 4.234375 -0.3125 C 5.054688 -0.3125 5.734375 -0.5625 6.265625 -1.0625 C 6.796875 -1.5625 7.0625 -2.1875 7.0625 -2.9375 C 7.0625 -3.6875 6.804688 -4.296875 6.296875 -4.765625 L 2.53125 -8.265625 C 1.820312 -8.921875 1.46875 -9.710938 1.46875 -10.640625 C 1.46875 -11.566406 1.78125 -12.359375 2.40625 -13.015625 C 3.03125 -13.679688 3.867188 -14.015625 4.921875 -14.015625 C 5.421875 -14.015625 5.984375 -13.945312 6.609375 -13.8125 L 7.375 -13.8125 L 7.375 -11.40625 L 7.203125 -11.40625 C 7.203125 -12.019531 6.988281 -12.507812 6.5625 -12.875 C 6.132812 -13.238281 5.585938 -13.421875 4.921875 -13.421875 C 4.253906 -13.421875 3.695312 -13.195312 3.25 -12.75 C 2.800781 -12.3125 2.578125 -11.757812 2.578125 -11.09375 C 2.578125 -10.425781 2.835938 -9.847656 3.359375 -9.359375 L 7.21875 -5.796875 C 7.875 -5.191406 8.203125 -4.363281 8.203125 -3.3125 C 8.203125 -2.269531 7.867188 -1.410156 7.203125 -0.734375 C 6.535156 -0.0546875 5.644531 0.28125 4.53125 0.28125 C 3.957031 0.28125 3.347656 0.191406 2.703125 0.015625 C 2.054688 -0.160156 1.554688 -0.429688 1.203125 -0.796875 Z M 1.203125 -0.796875 "/></g></g></g><g fill="#000000" fill-opacity="1"><g transform="translate(587.540482, 390.668216)"><g><path d="M 3.328125 -12.03125 C 4.628906 -13.351562 6.328125 -14.015625 8.421875 -14.015625 C 10.515625 -14.015625 12.210938 -13.351562 13.515625 -12.03125 C 14.828125 -10.71875 15.484375 -8.992188 15.484375 -6.859375 C 15.484375 -4.734375 14.828125 -3.007812 13.515625 -1.6875 C 12.210938 -0.375 10.515625 0.28125 8.421875 0.28125 C 6.328125 0.28125 4.628906 -0.375 3.328125 -1.6875 C 2.023438 -3.007812 1.375 -4.734375 1.375 -6.859375 C 1.375 -8.992188 2.023438 -10.71875 3.328125 -12.03125 Z M 4.40625 -2.109375 C 5.414062 -0.910156 6.753906 -0.3125 8.421875 -0.3125 C 10.097656 -0.3125 11.441406 -0.910156 12.453125 -2.109375 C 13.460938 -3.316406 13.96875 -4.90625 13.96875 -6.875 C 13.96875 -8.164062 13.738281 -9.304688 13.28125 -10.296875 C 12.820312 -11.296875 12.171875 -12.066406 11.328125 -12.609375 C 10.484375 -13.148438 9.515625 -13.421875 8.421875 -13.421875 C 6.753906 -13.421875 5.414062 -12.816406 4.40625 -11.609375 C 3.394531 -10.410156 2.890625 -8.828125 2.890625 -6.859375 C 2.890625 -4.898438 3.394531 -3.316406 4.40625 -2.109375 Z M 4.40625 -2.109375 "/></g></g></g><g fill="#000000" fill-opacity="1"><g transform="translate(606.23111, 390.668216)"><g><path d="M 15.265625 -13.546875 C 14.941406 -13.546875 14.660156 -13.429688 14.421875 -13.203125 C 14.191406 -12.972656 14.066406 -12.691406 14.046875 -12.359375 L 14.046875 -2.234375 C 14.046875 -1.472656 14.09375 -0.753906 14.1875 -0.078125 L 14.234375 0.28125 L 14.046875 0.28125 L 3.359375 -11.140625 L 3.359375 -1.375 C 3.367188 -0.914062 3.570312 -0.578125 3.96875 -0.359375 C 4.144531 -0.253906 4.335938 -0.203125 4.546875 -0.203125 L 4.921875 -0.203125 L 4.921875 0 L 0.890625 0 L 0.890625 -0.203125 L 1.25 -0.203125 C 1.582031 -0.203125 1.863281 -0.316406 2.09375 -0.546875 C 2.332031 -0.773438 2.453125 -1.054688 2.453125 -1.390625 L 2.453125 -11.578125 C 2.453125 -12.378906 2.40625 -13.09375 2.3125 -13.71875 L 2.28125 -14.03125 L 2.46875 -14.03125 L 13.171875 -2.609375 L 13.171875 -12.34375 C 13.160156 -12.6875 13.035156 -12.972656 12.796875 -13.203125 C 12.554688 -13.429688 12.273438 -13.546875 11.953125 -13.546875 L 11.578125 -13.546875 L 11.578125 -13.734375 L 15.625 -13.734375 L 15.625 -13.546875 Z M 15.265625 -13.546875 "/></g></g></g></svg>